<?xml version="1.0" standalone="no"?><!DOCTYPE svg PUBLIC "-//W3C//DTD SVG 1.1//EN" "http://www.w3.org/Graphics/SVG/1.1/DTD/svg11.dtd"><svg t="1575371562153" class="icon" viewBox="0 0 1024 1024" version="1.1" xmlns="http://www.w3.org/2000/svg" p-id="770" xmlns:xlink="http://www.w3.org/1999/xlink" width="32" height="32"><defs><style type="text/css"></style></defs><path d="M1014.4512 534.1696c5.3248-28.2112 8.32-56.5248 8.32-85.6576a457.728 457.728 0 0 0-8.32-85.6832h-109.2608a357.5552 357.5552 0 0 0-33.4592-82.944l65.92-87.168C904.192 141.9776 881.9968 119.808 831.232 86.3232l-87.1168 65.9456a357.504 357.504 0 0 0-82.944-33.4592V9.5488A458.0608 458.0608 0 0 0 575.488 1.2288c-29.1328 0-57.4464 2.9952-85.6576 8.32v109.2608c-28.2368 7.5776-56.832 18.7904-82.6112 33.4592L320.256 86.3488C277.1968 114.7392 254.7712 135.0144 228.5312 171.52h295.7056l9.344 29.8496 24.2688 77.5168a170.2656 170.2656 0 0 1 99.7376 318.6688l51.2512 163.6864c12.1344-5.0688 24.0128-10.7776 35.2768-17.1776l87.168 65.92c50.7392-33.4592 72.9088-55.6544 106.3936-106.4192l-65.9456-86.7584a355.072 355.072 0 0 0 33.4592-82.6112h109.2608z" fill="#0776B7" p-id="771"></path><path d="M533.5808 201.344l30.7712 98.304a148.9408 148.9408 0 0 1 86.7072 277.0432l32.256 103.0912c87.296-40.6784 147.9168-129.2032 147.9168-231.6288 0-140.8-114.5856-255.3856-255.3856-255.3856a255.744 255.744 0 0 0-43.776 3.7632l1.536 4.8128z" fill="#ACACAC" p-id="772"></path><path d="M492.9536 213.6576H250.7264L1.2288 1021.9776h191.36l58.1376-191.488h233.7536l62.976 191.488h198.656L492.9536 213.6576z m-209.5104 467.6608l90.2144-331.4176 90.24 331.4176h-180.4544z" fill="#FFCA71" p-id="773"></path></svg>